<svg id="Capa_1" enable-background="new 0 0 513.303 513.303" height="512" viewBox="0 0 513.303 513.303" width="512" xmlns="http://www.w3.org/2000/svg"><g><path d="m197.127 90.65c4.142 0 7.5-3.357 7.5-7.5v-3.269c0-4.143-3.358-7.5-7.5-7.5s-7.5 3.357-7.5 7.5v3.269c0 4.143 3.358 7.5 7.5 7.5z"/><path d="m307.675 79.882v3.269c0 4.143 3.358 7.5 7.5 7.5s7.5-3.357 7.5-7.5v-3.269c0-4.143-3.358-7.5-7.5-7.5s-7.5 3.357-7.5 7.5z"/><path d="m428.315 505.257-3.686-50.613c-1.564-21.479-13.883-40.278-32.953-50.286l-62.345-32.72c-.104-3.318-1.567-6.467-4.062-8.673l-16.817-14.862c-1.883-1.664-4.179-2.645-6.548-2.929v-21.694c24.517-15.314 40.864-42.539 40.864-73.514v-10.792c12.218-1.598 21.682-12.075 21.682-24.722 0-5.719-1.938-10.993-5.189-15.204 7.659-12.459 10.924-27.134 9.361-41.566 9.226-1.833 16.203-9.985 16.203-19.742v-6.911c0-10.228-7.671-18.679-17.558-19.949v-7.562c0-12.757-2.52-25.167-7.49-36.886-1.617-3.813-6.019-5.593-9.833-3.976-3.813 1.617-5.594 6.02-3.977 9.833 4.18 9.855 6.3 20.295 6.3 31.028v7.378h-44.323l-18.057-27.169v-57.897c15.081 3.339 29.004 11.061 39.9 22.287 1.471 1.516 3.425 2.276 5.382 2.276 1.882 0 3.766-.704 5.223-2.118 2.972-2.885 3.043-7.633.158-10.605-14.536-14.976-33.613-24.726-54.093-27.728-3.838-5.969-10.525-9.941-18.134-9.941h-24.343c-7.611 0-14.299 3.974-18.138 9.944-21.591 3.154-41.43 13.696-56.229 29.976-15.849 17.434-24.577 40.021-24.577 63.599v7.562c-9.887 1.271-17.558 9.722-17.558 19.949v6.911c0 9.764 6.988 17.919 16.224 19.745-1.564 14.431 1.683 29.103 9.341 41.562-3.251 4.211-5.19 9.485-5.19 15.205 0 12.646 9.464 23.124 21.682 24.722v10.792c0 10.2 1.76 20.193 5.23 29.701 1.111 3.043 3.985 4.931 7.046 4.931.854 0 1.723-.146 2.571-.457 3.891-1.42 5.894-5.726 4.474-9.616-2.868-7.855-4.321-16.118-4.321-24.559v-13.832c0-6.479-5.271-11.749-11.749-11.749-5.477 0-9.933-4.456-9.933-9.933 0-5.478 4.456-9.934 9.933-9.934h.635c4.142 0 7.5-3.357 7.5-7.5v-7.184c0-10.479 2.87-20.755 8.299-29.718l1.238-2.044h131.386l1.238 2.044c5.43 8.963 8.299 19.239 8.299 29.718v7.184c0 4.143 3.358 7.5 7.5 7.5h.635c5.477 0 9.933 4.456 9.933 9.934 0 5.477-4.456 9.933-9.933 9.933-6.479 0-11.749 5.271-11.749 11.749v13.832c0 39.49-32.127 71.617-71.617 71.617-19.88 0-38.364-7.975-52.047-22.455-2.844-3.009-7.592-3.146-10.602-.3-3.011 2.845-3.145 7.592-.3 10.603 5.475 5.794 11.598 10.707 18.197 14.714v21.028c-2.369.285-4.664 1.264-6.548 2.928l-16.819 14.864c-2.494 2.206-3.957 5.354-4.061 8.672l-62.345 32.72c-19.07 10.008-31.389 28.807-32.953 50.286l-3.686 50.613c-.301 4.132 2.804 7.725 6.935 8.025.186.014.37.02.553.02 3.894 0 7.185-3.01 7.472-6.955l3.686-50.613c1.185-16.271 10.517-30.513 24.963-38.095l31.295-16.424-.249.846c-10.599 36.099-6.587 74.207 11.296 107.307 1.357 2.511 3.938 3.936 6.605 3.936 1.204 0 2.425-.29 3.559-.902 3.644-1.969 5.002-6.52 3.033-10.164-15.992-29.597-19.579-63.672-10.101-95.949l4.338-14.773 13.404-7.034 5.194 4.735-.111.772c-4.887 33.89.375 68.112 15.217 98.97l7.834 16.288c1.489 3.093 4.558 4.983 7.901 4.983.445 0 .895-.033 1.347-.102 3.845-.585 6.811-3.562 7.38-7.41l10.202-69.051h18.899l11.099 69.236c.611 3.816 3.591 6.756 7.416 7.313.433.063.864.094 1.291.094 3.344 0 6.419-1.895 7.906-4.984l7.873-16.368c14.842-30.857 20.104-65.08 15.217-98.97l-.111-.772 5.194-4.735 13.404 7.035 4.338 14.773c3.346 11.395 5.069 23.216 5.123 35.136.019 4.131 3.373 7.467 7.499 7.467h.034c4.142-.019 7.485-3.392 7.467-7.533-.06-13.328-1.987-26.55-5.73-39.296l-.249-.848 31.296 16.425c14.446 7.582 23.778 21.823 24.963 38.095l3.686 50.613c.287 3.945 3.578 6.955 7.472 6.955.183 0 .367-.006.553-.02 4.132-.302 7.237-3.894 6.936-8.026zm-190.9-419.265v-64.428c0-3.62 2.945-6.564 6.565-6.564h24.343c3.62 0 6.565 2.944 6.565 6.564v64.428c0 1.478.436 2.921 1.254 4.151l13.793 20.753h-67.566l13.793-20.753c.817-1.23 1.253-2.673 1.253-4.151zm-56.703-35.982c11.162-12.278 25.73-20.653 41.703-24.17v57.888l-18.057 27.169h-44.323v-7.378c.001-19.839 7.343-38.842 20.677-53.509zm-38.234 81.019c0-2.83 2.303-5.133 5.133-5.133h217.082c2.83 0 5.133 2.303 5.133 5.133v6.911c0 2.83-2.303 5.133-5.133 5.133h-217.083c-2.83 0-5.133-2.303-5.133-5.133v-6.911zm23.443 58.806v.645c-.189.054-.37.126-.557.185-5.807-9.816-8.126-21.337-6.628-32.591h14.539c-4.821 9.865-7.354 20.722-7.354 31.761zm173.106-31.762h14.538c1.496 11.254-.815 22.776-6.623 32.592-.188-.059-.37-.131-.56-.186v-.645c0-11.038-2.533-21.895-7.355-31.761zm-26.13 213.975-29.72 27.099-14.91-14.013 32.042-24.211zm-71.893 46.618 1.043-10.139 14.604-13.725 13.497 12.685 1.15 11.179zm15.147-82.083c10.826 0 21.191-2.002 30.753-5.646v21.313l-30.253 22.858-30.253-22.858v-20.886c9.388 3.425 19.412 5.219 29.753 5.219zm-43.157 24.34 32.042 24.211-14.91 14.013-29.72-27.099zm11.668 119.558c-11.477-24.726-16.232-51.736-13.997-78.78l9.75 8.89c1.758 1.603 3.827 2.683 6.006 3.256l-.413 4.015c-.415 4.029.903 8.065 3.617 11.072.707.784 1.497 1.476 2.346 2.078zm63.753.485-8.015-49.998c.823-.591 1.589-1.271 2.278-2.034 2.714-3.007 4.032-7.043 3.617-11.071l-.39-3.793c2.535-.482 4.965-1.638 6.983-3.479l9.769-8.907c2.252 27.227-2.599 54.419-14.242 79.282z"/><path d="m349.929 466.06c-4.025-.962-8.077 1.514-9.044 5.541-2.569 10.691-6.511 20.999-11.718 30.636-1.969 3.645-.611 8.195 3.033 10.164 1.134.612 2.354.902 3.559.902 2.667 0 5.249-1.425 6.605-3.936 5.824-10.78 10.234-22.308 13.106-34.263.967-4.027-1.514-8.077-5.541-9.044z"/></g></svg>