<?xml version="1.0" encoding="UTF-8"?>
<svg id="Expanded" xmlns="http://www.w3.org/2000/svg" viewBox="0 0 64 64">
  <path d="M59,38.44v-11.85c0-2.76-2.24-5-5-5h-5.68c-.31-2.02-.32-3.89-.02-5.57.11-.62-.08-1.25-.53-1.79-.59-.71-1.56-1.15-2.53-1.15h-1.31v-6.53c0-1.21-.48-2.36-1.34-3.23-.86-.86-2-1.33-3.22-1.33-2.52,0-4.57,2.05-4.57,4.56v6.53h-16.04c-.97,0-1.94.44-2.53,1.15-.45.54-.64,1.17-.53,1.8.31,1.67.3,3.54-.02,5.56h-5.68c-2.76,0-5,2.24-5,5v11.85c-1.86,1.31-3,3.44-3,5.73v10.83c0,3.86,3.14,7,7,7h46c3.86,0,7-3.14,7-7v-10.83c0-2.29-1.14-4.42-3-5.73ZM54,23.59c1.65,0,3,1.35,3,3v10.87c-.64-.19-1.32-.29-2-.29h-.09c-3.12-4.87-5.22-9.49-6.19-13.58h5.28ZM36.8,6.56c0-1.41,1.15-2.56,2.57-2.56.68,0,1.32.27,1.8.75.49.49.76,1.13.76,1.81v6.53h-5.13v-6.53ZM17.67,15.69c.01-.15.45-.6,1.09-.6h26.48c.64,0,1.08.44,1.1.58-1.05,5.69,1.15,13.27,6.21,21.5H11.46c5.06-8.23,7.26-15.81,6.21-21.48ZM7,26.59c0-1.65,1.35-3,3-3h5.28c-.98,4.09-3.07,8.71-6.19,13.58h-.09c-.68,0-1.36.1-2,.29v-10.87ZM60,55c0,2.76-2.24,5-5,5H9c-2.76,0-5-2.24-5-5v-10.83c0-1.78.96-3.44,2.5-4.33,0,0,0,0,0,0,.76-.44,1.6-.67,2.5-.67h46c.9,0,1.74.22,2.5.67,0,0,0,0,0,0,1.54.9,2.5,2.56,2.5,4.33v10.83ZM25.01,33h13.99c2.21,0,4-1.79,4-4v-5.52c0-2.21-1.79-4-4-4h-13.99c-2.21,0-4,1.79-4,4v5.52c0,2.21,1.79,4,4,4ZM23.01,23.48c0-1.1.9-2,2-2h13.99c1.1,0,2,.9,2,2v5.52c0,1.1-.9,2-2,2h-13.99c-1.1,0-2-.9-2-2v-5.52ZM29.69,48.58H11.31c-1.82,0-3.31,1.48-3.31,3.31v.8c0,1.83,1.48,3.31,3.31,3.31h18.38c1.82,0,3.31-1.48,3.31-3.31v-.8c0-1.83-1.48-3.31-3.31-3.31ZM31,52.69c0,.72-.59,1.31-1.31,1.31H11.31c-.72,0-1.31-.59-1.31-1.31v-.8c0-.72.59-1.31,1.31-1.31h18.38c.72,0,1.31.59,1.31,1.31v.8ZM12.63,44.93c0-.55.45-1,1-1h6.6c.55,0,1,.45,1,1s-.45,1-1,1h-6.6c-.55,0-1-.45-1-1ZM23.36,44.93c0-.55.45-1,1-1h1.54c.55,0,1,.45,1,1s-.45,1-1,1h-1.54c-.55,0-1-.45-1-1ZM43.85,45.19c0,.55-.45,1-1,1h-2.81c-.55,0-1-.45-1-1s.45-1,1-1h2.81c.55,0,1,.45,1,1ZM53.85,45.19c0,.55-.45,1-1,1h-2.81c-.55,0-1-.45-1-1s.45-1,1-1h2.81c.55,0,1,.45,1,1ZM43.85,50.19c0,.55-.45,1-1,1h-2.81c-.55,0-1-.45-1-1s.45-1,1-1h2.81c.55,0,1,.45,1,1ZM53.85,50.19c0,.55-.45,1-1,1h-2.81c-.55,0-1-.45-1-1s.45-1,1-1h2.81c.55,0,1,.45,1,1ZM43.85,55.19c0,.55-.45,1-1,1h-2.81c-.55,0-1-.45-1-1s.45-1,1-1h2.81c.55,0,1,.45,1,1ZM53.85,55.19c0,.55-.45,1-1,1h-2.81c-.55,0-1-.45-1-1s.45-1,1-1h2.81c.55,0,1,.45,1,1Z"/>
</svg>