<?xml version="1.0" encoding="UTF-8"?>
<svg id="Gylph" xmlns="http://www.w3.org/2000/svg" viewBox="0 0 64 64">
  <path fill="currentColor" d="M57,57v-9.77c0-1.65-1.35-3-3-3h-21v15.77h21c1.65,0,3-1.35,3-3ZM48.9,49.36l-5.39,6.76c-.19.24-.47.38-.78.38h-.03c-.32-.01-.61-.17-.79-.43l-2.36-3.38c-.31-.46-.2-1.08.25-1.4.46-.31,1.08-.2,1.4.25l1.59,2.29,4.55-5.72c.34-.43.97-.5,1.4-.16.44.34.51.97.16,1.41ZM44.25,13.26l-1.17,2.77c-.16.37-.52.61-.92.61h-20.32c-.4,0-.76-.24-.92-.61l-1.17-2.77c-.13-.32-.1-.66.09-.94.19-.29.49-.45.83-.45h22.66c.34,0,.64.16.83.45.19.28.22.62.09.94ZM42.49,42.23h-20.98l-1-.99c-.65-.65-.81-1.65-.38-2.51.84-1.71,1.89-3.2,3.13-4.45.74-.76,1.55-1.42,2.4-1.97.51-.32,1.04-.61,1.59-.86h.01c.09-.05.18-.1.27-.16.03-.02.06-.04.09-.05.14-.09.25-.19.35-.29.04-.03.07-.06.1-.09.04-.04.08-.08.11-.12.03-.03.06-.07.07-.11.03-.01.04-.03.03-.04.27-.33.45-.72.54-1.14.15-.74.27-1.46.36-2.16.91.25,1.85.37,2.82.37s1.91-.12,2.82-.37c.09.7.21,1.42.36,2.16.11.5.33.95.62,1.26.24.3.56.55.96.74,1.45.66,2.79,1.61,3.99,2.83,1.23,1.25,2.28,2.74,3.12,4.45.43.86.27,1.86-.39,2.51l-.99.99ZM23.76,18.64h16.48c-.32,2.8-2.2,5.26-4.98,6.39h-.01c-2.04.84-4.44.84-6.49,0-.01,0-.01-.01-.02-.01-2.78-1.13-4.66-3.58-4.98-6.38ZM39.97,8.9c0,.33-.03.65-.1.97h-6.87v-5.87h2.07c2.7,0,4.9,2.2,4.9,4.9ZM7,47.23v9.77c0,1.65,1.35,3,3,3h21v-15.77H10c-1.65,0-3,1.35-3,3ZM15.17,50.57c-.39-.4-.39-1.03,0-1.42.39-.39,1.02-.39,1.41,0l2.34,2.34,2.34-2.34c.39-.39,1.03-.39,1.42,0,.39.39.39,1.02,0,1.42l-2.34,2.34,2.34,2.34c.39.39.39,1.02,0,1.41-.2.2-.45.3-.71.3s-.51-.1-.71-.3l-2.34-2.34-2.34,2.34c-.2.2-.45.3-.71.3s-.51-.1-.7-.3c-.39-.39-.39-1.02,0-1.41l2.34-2.34-2.34-2.34ZM31,9.87h-6.87c-.07-.32-.1-.64-.1-.97,0-1.3.51-2.53,1.43-3.46.94-.93,2.17-1.44,3.47-1.44h2.07v5.87Z"/>
</svg>